<?xml version="1.0" encoding="iso-8859-1"?>
<!-- Uploaded to: SVG Repo, www.svgrepo.com, Generator: SVG Repo Mixer Tools -->
<svg height="800px" width="800px" version="1.1" id="Layer_1" xmlns="http://www.w3.org/2000/svg" xmlns:xlink="http://www.w3.org/1999/xlink" 
	 viewBox="0 0 512 512" xml:space="preserve">
<path style="fill:#A6673A;" d="M440.387,125.951L95.175,471.162c-13.418,13.418-35.256,13.418-48.673,0l-36.439-36.439
	c-13.418-13.418-13.418-35.256,0-48.673L355.275,40.838c13.418-13.418,35.256-13.418,48.673,0l36.439,36.439
	C453.805,90.695,453.805,112.532,440.387,125.951z"/>
<path style="fill:#99522E;" d="M440.387,125.951L95.175,471.162c-13.418,13.418-35.256,13.418-48.673,0l-18.216-18.216
	L422.172,59.062l18.216,18.216C453.805,90.695,453.805,112.532,440.387,125.951z"/>
<path style="fill:#CCE6FF;" d="M461.558,313.014c-20.689,20.689-46.236,36.588-73.922,46.051
	c-17.102,7.191-30.844,5.762-40.842-4.236l-1-1.088L200.73,183.525c-12.427-13.093-12.225-33.869,0.623-46.718l82.149-82.149
	c12.813-12.813,33.519-13.05,46.621-0.702l172.645,143.686l0.605,0.605c13.559,13.559,7.77,30.467,4.998,38.588l-0.517,1.534
	C498.417,266.348,482.413,292.159,461.558,313.014z"/>
<path style="fill:#BDDEFF;" d="M461.558,313.014c-20.689,20.689-46.236,36.588-73.922,46.051
	c-17.102,7.191-30.844,5.762-40.842-4.236l-1-1.088L200.73,183.525c-12.427-13.093-12.225-33.869,0.623-46.718l41.999-41.999
	L461.558,313.014z"/>
</svg>