<?xml version="1.0" encoding="utf-8"?>
<!-- Uploaded to: SVG Repo, www.svgrepo.com, Generator: SVG Repo Mixer Tools -->
<svg fill="#e1e1d9" width="800px" height="800px" viewBox="0 0 32 32" version="1.1" xmlns="http://www.w3.org/2000/svg">
<path d="M31.12 24.976l0-7.329-5.583 0.204c0.139-0.825 0.173-1.649 0.112-2.455l2.97-1.724-3.318-0.744-0.435-0.753c-0.572-1.348-1.429-2.566-2.517-3.563l7.832-7.789-6.007-0-3.049 6.829c-0.349-0.233-0.714-0.445-1.094-0.635l-0.472-3.867-2.227 2.959c-1.665-0.315-3.326-0.202-4.861 0.265l-1.168-5.737-7.923 0 6.57 6.897c-0.511 0.325-0.994 0.695-1.442 1.107l-3.812-1.279 1.929 3.607c-0.459 0.78-0.822 1.633-1.067 2.55-0.289 1.079-0.394 2.164-0.335 3.222l-3.325 2.502 3.948 0.483c0.127 0.341 0.272 0.675 0.434 1l-5.644 2.401v6.352l6.609-7.184c0.301 0.404 0.633 0.786 0.993 1.143l-1.53 3.599 4.099-1.743c0.468 0.237 0.96 0.441 1.473 0.608l-3.157 5.315 6.767 0-0.549-4.813c0.611 0.006 1.215-0.043 1.807-0.143l2.012 2.982 0.866-3.926c0.764-0.383 1.479-0.86 2.126-1.421l3.209 1.090-1.317-3.272c0.245-0.381 0.468-0.781 0.663-1.198l6.411 4.461zM15.738 20.62c-2.468 0-4.468-2-4.468-4.468s2.001-4.468 4.468-4.468 4.468 2 4.468 4.468c0 2.468-2.001 4.468-4.468 4.468z"></path>
</svg>