<?xml version="1.0" encoding="iso-8859-1"?>
<!-- Uploaded to: SVG Repo, www.svgrepo.com, Generator: SVG Repo Mixer Tools -->
<svg height="800px" width="800px" version="1.1" id="Layer_1" xmlns="http://www.w3.org/2000/svg" xmlns:xlink="http://www.w3.org/1999/xlink" 
	 viewBox="0 0 473.931 473.931" xml:space="preserve">
<circle style="fill:#B8E3EB;" cx="236.966" cy="236.966" r="236.966"/>
<g style="opacity:0.6;">
	<g>
		<path style="fill:#3D929A;" d="M348.38,260.782c-30.57,0-55.251-12.168-55.251-27.165c0-14.967,24.681-38.72,55.251-38.72
			c30.585,0,55.292,23.753,55.292,38.72C403.676,248.614,378.965,260.782,348.38,260.782z"/>
		<g>
			<path style="fill:#409FA4;" d="M348.38,247.794c-28.759,0-51.969-8.112-51.969-18.118c0-9.99,23.21-33.339,51.969-33.339
				c28.778,0,52.018,23.349,52.018,33.339C400.402,239.682,377.162,247.794,348.38,247.794z"/>
			<path style="fill:#47A4A9;" d="M348.388,231.009c-22.686,0-40.991-6.402-40.991-14.294c0-7.876,18.308-20.374,40.991-20.374
				c22.69,0,41.028,12.497,41.028,20.374C389.416,224.607,371.082,231.009,348.388,231.009z"/>
			<path style="opacity:0.2;fill:#67C3C8;enable-background:new    ;" d="M349.338,257.961c-28.767,0-28.767-61.979,0-61.979
				c28.77,0,52.025,22.35,52.025,36.43C401.364,246.511,378.112,257.961,349.338,257.961z"/>
			<path style="opacity:0.2;fill:#B3E0DF;enable-background:new    ;" d="M358.217,256.213c-23.453,0-23.453-57.316,0-57.316
				s42.417,20.658,42.417,33.691C400.634,245.632,381.671,256.213,358.217,256.213z"/>
			<path style="opacity:0.2;fill:#FFFFFF;enable-background:new    ;" d="M368.114,248.116c-15.835,0-15.835-38.712,0-38.712
				c15.835,0,28.639,13.957,28.639,22.75C396.754,240.962,383.949,248.116,368.114,248.116z"/>
		</g>
	</g>
	<g>
		<path style="fill:#3D929A;" d="M136.81,240.561c-40.785,0-73.709-16.239-73.709-36.235c0-19.974,32.924-51.67,73.709-51.67
			c40.8,0,73.776,31.696,73.776,51.67C210.586,224.322,177.614,240.561,136.81,240.561z"/>
		<g>
			<path style="fill:#409FA4;" d="M136.81,223.241c-38.361,0-69.331-10.832-69.331-24.176c0-13.324,30.971-44.486,69.331-44.486
				c38.398,0,69.406,31.161,69.406,44.486C206.216,212.408,175.208,223.241,136.81,223.241z"/>
			<path style="fill:#47A4A9;" d="M136.817,200.843c-30.256,0-54.686-8.542-54.686-19.068c0-10.511,24.43-27.195,54.686-27.195
				c30.286,0,54.746,16.685,54.746,27.195C191.563,192.297,167.103,200.843,136.817,200.843z"/>
			<path style="opacity:0.2;fill:#67C3C8;enable-background:new    ;" d="M138.09,236.805c-38.375,0-38.375-82.7,0-82.7
				c38.383,0,69.413,29.818,69.413,48.605C207.503,221.531,176.473,236.805,138.09,236.805z"/>
			<path style="opacity:0.2;fill:#B3E0DF;enable-background:new    ;" d="M149.936,234.474c-31.285,0-31.285-76.474,0-76.474
				c31.292,0,56.587,27.566,56.587,44.946C206.523,220.349,181.228,234.474,149.936,234.474z"/>
			<path style="opacity:0.2;fill:#FFFFFF;enable-background:new    ;" d="M163.133,223.671c-21.126,0-21.126-51.655,0-51.655
				c21.133,0,38.215,18.623,38.215,30.349C201.348,214.118,184.27,223.671,163.133,223.671z"/>
		</g>
	</g>
	<g>
		<path style="fill:#3D929A;" d="M253.893,159.223c-33.537,0-60.62-13.351-60.62-29.803c0-16.423,27.083-42.488,60.62-42.488
			c33.56,0,60.68,26.069,60.68,42.488C314.574,145.869,287.453,159.223,253.893,159.223z"/>
		<g>
			<path style="fill:#409FA4;" d="M253.893,144.971c-31.551,0-57.017-8.902-57.017-19.88c0-10.963,25.47-36.583,57.017-36.583
				c31.577,0,57.084,25.624,57.084,36.583C310.978,136.069,285.474,144.971,253.893,144.971z"/>
			<path style="fill:#47A4A9;" d="M253.901,126.554c-24.883,0-44.976-7.031-44.976-15.682c0-8.647,20.09-22.365,44.976-22.365
				c24.905,0,45.025,13.717,45.025,22.365C298.925,119.523,278.81,126.554,253.901,126.554z"/>
			<path style="opacity:0.2;fill:#67C3C8;enable-background:new    ;" d="M254.949,156.129c-31.558,0-31.558-68.018,0-68.018
				c31.573,0,57.084,24.527,57.084,39.977C312.029,143.568,286.518,156.129,254.949,156.129z"/>
			<path style="opacity:0.2;fill:#B3E0DF;enable-background:new    ;" d="M264.688,154.217c-25.725,0-25.725-62.903,0-62.903
				c25.74,0,46.54,22.679,46.54,36.965C311.228,142.595,290.428,154.217,264.688,154.217z"/>
			<path style="opacity:0.2;fill:#FFFFFF;enable-background:new    ;" d="M275.547,145.33c-17.373,0-17.373-42.476,0-42.476
				c17.38,0,31.423,15.311,31.423,24.958C306.974,137.48,292.927,145.33,275.547,145.33z"/>
		</g>
	</g>
	<g>
		<circle style="fill:#3D929A;" cx="92.504" cy="267.049" r="21.515"/>
		<g>
			<path style="opacity:0.2;fill:#67C3C8;enable-background:new    ;" d="M114.019,267.038c0,11.884-9.631,21.515-21.515,21.515
				c-11.876,0-11.876-43.03,0-43.03C104.384,245.523,114.019,255.154,114.019,267.038z"/>
			<path style="opacity:0.2;fill:#67C3C8;enable-background:new    ;" d="M109.794,267.038c0,8.58-6.956,15.536-15.536,15.536
				c-8.587,0-8.587-31.083,0-31.083C102.835,251.495,109.794,258.458,109.794,267.038z"/>
			<path style="opacity:0.2;fill:#67C3C8;enable-background:new    ;" d="M112.257,266.518c0,10.911-39.509,10.911-39.509,0
				c0-10.903,8.849-19.745,19.753-19.745C103.415,246.773,112.257,255.615,112.257,266.518z"/>
			<path style="opacity:0.2;fill:#67C3C8;enable-background:new    ;" d="M107.433,258.889c0,5.912-29.889,5.912-29.889,0
				c0-5.927,6.694-10.728,14.952-10.728C100.747,248.161,107.433,252.962,107.433,258.889z"/>
		</g>
	</g>
	<g>
		<circle style="fill:#3D929A;" cx="151.13" cy="337.619" r="13.096"/>
		<g>
			<path style="opacity:0.2;fill:#67C3C8;enable-background:new    ;" d="M164.245,337.612c0,7.229-5.867,13.096-13.096,13.096
				c-7.237,0-7.237-26.192,0-26.192C158.377,324.515,164.245,330.379,164.245,337.612z"/>
			<path style="opacity:0.2;fill:#67C3C8;enable-background:new    ;" d="M161.674,337.612c0,5.22-4.239,9.455-9.455,9.455
				c-5.223,0-5.223-18.922,0-18.922C157.435,328.149,161.674,332.388,161.674,337.612z"/>
			<path style="opacity:0.2;fill:#67C3C8;enable-background:new    ;" d="M163.171,337.297c0,6.634-24.052,6.634-24.052,0
				c0-6.642,5.384-12.022,12.03-12.022C157.786,325.275,163.171,330.656,163.171,337.297z"/>
			<path style="opacity:0.2;fill:#67C3C8;enable-background:new    ;" d="M160.233,332.65c0,3.603-18.189,3.603-18.189,0
				c0-3.611,4.071-6.526,9.1-6.526C156.162,326.124,160.233,329.039,160.233,332.65z"/>
		</g>
	</g>
	<g>
		<circle style="fill:#3D929A;" cx="242.294" cy="53.238" r="14.518"/>
		<g>
			<path style="opacity:0.2;fill:#67C3C8;enable-background:new    ;" d="M256.812,53.238c0,8.011-6.503,14.514-14.522,14.514
				s-8.019-29.036,0-29.036S256.812,45.215,256.812,53.238z"/>
			<path style="opacity:0.2;fill:#67C3C8;enable-background:new    ;" d="M253.961,53.238c0,5.781-4.7,10.481-10.488,10.481
				c-5.796,0-5.796-20.973,0-20.973C249.261,42.746,253.961,47.446,253.961,53.238z"/>
			<path style="opacity:0.2;fill:#67C3C8;enable-background:new    ;" d="M255.618,52.89c0,7.36-26.66,7.36-26.66,0
				s5.972-13.332,13.332-13.332C249.65,39.558,255.618,45.53,255.618,52.89z"/>
			<path style="opacity:0.2;fill:#67C3C8;enable-background:new    ;" d="M252.367,47.737c0,3.989-20.172,3.989-20.172,0
				c0-3.996,4.516-7.237,10.084-7.237S252.367,43.737,252.367,47.737z"/>
		</g>
	</g>
	<g>
		<circle style="fill:#3D929A;" cx="367.329" cy="278.986" r="10.099"/>
		<g>
			<path style="opacity:0.2;fill:#67C3C8;enable-background:new    ;" d="M377.439,278.986c0,5.575-4.524,10.099-10.099,10.099
				c-5.575,0-5.575-20.198,0-20.198C372.915,268.887,377.439,273.41,377.439,278.986z"/>
			<path style="opacity:0.2;fill:#67C3C8;enable-background:new    ;" d="M375.459,278.986c0,4.026-3.267,7.293-7.293,7.293
				c-4.034,0-4.034-14.585,0-14.585C372.193,271.693,375.459,274.96,375.459,278.986z"/>
			<path style="opacity:0.2;fill:#67C3C8;enable-background:new    ;" d="M376.612,278.746c0,5.122-18.548,5.122-18.548,0
				c0-5.122,4.15-9.268,9.276-9.268S376.612,273.624,376.612,278.746z"/>
			<path style="opacity:0.2;fill:#67C3C8;enable-background:new    ;" d="M374.348,275.165c0,2.776-14.032,2.776-14.032,0
				c0-2.784,3.143-5.036,7.023-5.036C371.213,270.129,374.348,272.381,374.348,275.165z"/>
		</g>
	</g>
	<g>
		<circle style="fill:#3D929A;" cx="234.81" cy="339.303" r="14.518"/>
		<g>
			<path style="opacity:0.2;fill:#67C3C8;enable-background:new    ;" d="M249.328,339.307c0,8.011-6.503,14.514-14.522,14.514
				s-8.019-29.036,0-29.036S249.328,331.284,249.328,339.307z"/>
			<path style="opacity:0.2;fill:#67C3C8;enable-background:new    ;" d="M246.477,339.307c0,5.781-4.7,10.481-10.488,10.481
				c-5.796,0-5.796-20.973,0-20.973C241.778,328.815,246.477,333.514,246.477,339.307z"/>
			<path style="opacity:0.2;fill:#67C3C8;enable-background:new    ;" d="M248.135,338.959c0,7.36-26.66,7.36-26.66,0
				c0-7.36,5.972-13.332,13.332-13.332C242.167,325.627,248.135,331.599,248.135,338.959z"/>
			<path style="opacity:0.2;fill:#67C3C8;enable-background:new    ;" d="M244.883,333.806c0,3.989-20.172,3.989-20.172,0
				c0-3.996,4.516-7.237,10.084-7.237S244.883,329.806,244.883,333.806z"/>
		</g>
	</g>
	<g>
		<circle style="fill:#3D929A;" cx="237.302" cy="181.7" r="14.518"/>
		<g>
			<path style="opacity:0.2;fill:#67C3C8;enable-background:new    ;" d="M251.82,181.7c0,8.019-6.496,14.522-14.514,14.522
				s-8.019-29.036,0-29.036S251.82,173.685,251.82,181.7z"/>
			<path style="opacity:0.2;fill:#67C3C8;enable-background:new    ;" d="M248.969,181.7c0,5.788-4.692,10.481-10.481,10.481
				c-5.796,0-5.796-20.969,0-20.969C244.277,171.215,248.969,175.915,248.969,181.7z"/>
			<path style="opacity:0.2;fill:#67C3C8;enable-background:new    ;" d="M250.627,181.352c0,7.36-26.653,7.36-26.653,0
				c0-7.36,5.972-13.324,13.332-13.324S250.627,173.992,250.627,181.352z"/>
			<path style="opacity:0.2;fill:#67C3C8;enable-background:new    ;" d="M247.375,176.199c0,3.996-20.164,3.996-20.164,0
				s4.516-7.237,10.084-7.237S247.375,172.2,247.375,176.199z"/>
		</g>
	</g>
	<g>
		<circle style="fill:#3D929A;" cx="316.328" cy="177.958" r="11.225"/>
		<g>
			<path style="opacity:0.2;fill:#67C3C8;enable-background:new    ;" d="M327.576,177.958c0,6.204-5.036,11.248-11.248,11.248
				c-6.204,0-6.204-22.488,0-22.488C322.54,166.718,327.576,171.747,327.576,177.958z"/>
			<path style="opacity:0.2;fill:#67C3C8;enable-background:new    ;" d="M325.368,177.958c0,4.479-3.641,8.12-8.12,8.12
				c-4.486,0-4.486-16.247,0-16.247C321.728,169.835,325.368,173.472,325.368,177.958z"/>
			<path style="opacity:0.2;fill:#67C3C8;enable-background:new    ;" d="M326.656,177.689c0,5.699-20.647,5.699-20.647,0
				c0-5.699,4.617-10.32,10.32-10.32S326.656,171.99,326.656,177.689z"/>
			<path style="opacity:0.2;fill:#67C3C8;enable-background:new    ;" d="M324.134,173.7c0,3.091-15.618,3.091-15.618,0
				c0-3.098,3.495-5.605,7.805-5.605C320.639,168.095,324.134,170.602,324.134,173.7z"/>
		</g>
	</g>
	<g>
		<circle style="fill:#3D929A;" cx="163.717" cy="134.307" r="7.484"/>
		<g>
			<path style="opacity:0.2;fill:#67C3C8;enable-background:new    ;" d="M171.219,134.307c0,4.135-3.36,7.499-7.506,7.499
				c-4.146,0-4.142-15.004,0-15.004C167.855,126.801,171.219,130.165,171.219,134.307z"/>
			<path style="opacity:0.2;fill:#67C3C8;enable-background:new    ;" d="M169.741,134.307c0,2.99-2.425,5.414-5.414,5.414
				c-2.997,0-2.997-10.836,0-10.836C167.317,128.885,169.741,131.313,169.741,134.307z"/>
			<path style="opacity:0.2;fill:#67C3C8;enable-background:new    ;" d="M170.606,134.127c0,3.802-13.777,3.802-13.777,0
				c0-3.802,3.083-6.885,6.885-6.885C167.519,127.242,170.606,130.326,170.606,134.127z"/>
			<path style="opacity:0.2;fill:#67C3C8;enable-background:new    ;" d="M168.914,131.467c0,2.062-10.413,2.062-10.413,0
				c0-2.069,2.331-3.742,5.212-3.742C166.594,127.725,168.914,129.398,168.914,131.467z"/>
		</g>
	</g>
	<g>
		<circle style="fill:#3D929A;" cx="234.81" cy="268.565" r="11.225"/>
		<g>
			<path style="opacity:0.2;fill:#67C3C8;enable-background:new    ;" d="M246.054,268.565c0,6.204-5.036,11.24-11.248,11.24
				c-6.204,0-6.204-22.488,0-22.488C241.018,257.317,246.054,262.354,246.054,268.565z"/>
			<path style="opacity:0.2;fill:#67C3C8;enable-background:new    ;" d="M243.847,268.565c0,4.479-3.641,8.112-8.12,8.112
				c-4.486,0-4.486-16.239,0-16.239C240.206,260.438,243.847,264.078,243.847,268.565z"/>
			<path style="opacity:0.2;fill:#67C3C8;enable-background:new    ;" d="M245.134,268.295c0,5.691-20.647,5.691-20.647,0
				c0-5.699,4.617-10.327,10.32-10.327S245.134,262.597,245.134,268.295z"/>
			<path style="opacity:0.2;fill:#67C3C8;enable-background:new    ;" d="M242.612,264.307c0,3.091-15.618,3.091-15.618,0
				c0-3.098,3.495-5.605,7.805-5.605C239.117,258.702,242.612,261.205,242.612,264.307z"/>
		</g>
	</g>
	<g>
		<circle style="fill:#3D929A;" cx="234.81" cy="408.712" r="11.225"/>
		<g>
			<path style="opacity:0.2;fill:#67C3C8;enable-background:new    ;" d="M246.054,408.705c0,6.204-5.036,11.24-11.248,11.24
				c-6.204,0-6.204-22.488,0-22.488C241.018,397.461,246.054,402.494,246.054,408.705z"/>
			<path style="opacity:0.2;fill:#67C3C8;enable-background:new    ;" d="M243.847,408.705c0,4.479-3.641,8.112-8.12,8.112
				c-4.486,0-4.486-16.239,0-16.239C240.206,400.578,243.847,404.219,243.847,408.705z"/>
			<path style="opacity:0.2;fill:#67C3C8;enable-background:new    ;" d="M245.134,408.436c0,5.691-20.647,5.691-20.647,0
				c0-5.699,4.617-10.327,10.32-10.327S245.134,402.737,245.134,408.436z"/>
			<path style="opacity:0.2;fill:#67C3C8;enable-background:new    ;" d="M242.612,404.447c0,3.091-15.618,3.091-15.618,0
				c0-3.098,3.495-5.605,7.805-5.605C239.117,398.842,242.612,401.349,242.612,404.447z"/>
		</g>
	</g>
	<g>
		<path style="fill:#3D929A;" d="M321.758,340.096c0,8.748-7.102,15.858-15.858,15.858c-8.748,0-15.85-7.109-15.85-15.858
			c0-8.756,7.102-15.85,15.85-15.85C314.656,324.246,321.758,331.344,321.758,340.096z"/>
		<g>
			<path style="opacity:0.2;fill:#67C3C8;enable-background:new    ;" d="M321.758,340.096c0,8.748-7.102,15.858-15.858,15.858
				c-8.748,0-8.748-31.711,0-31.711C314.656,324.246,321.758,331.344,321.758,340.096z"/>
			<path style="opacity:0.2;fill:#67C3C8;enable-background:new    ;" d="M318.645,340.096c0,6.32-5.13,11.446-11.454,11.446
				c-6.327,0-6.327-22.896,0-22.896C313.515,328.646,318.645,333.776,318.645,340.096z"/>
			<path style="opacity:0.2;fill:#67C3C8;enable-background:new    ;" d="M320.448,339.718c0,8.03-29.1,8.03-29.1,0
				c0-8.037,6.511-14.552,14.552-14.552C313.941,325.166,320.448,331.677,320.448,339.718z"/>
			<path style="opacity:0.2;fill:#67C3C8;enable-background:new    ;" d="M316.905,334.091c0,4.363-22.028,4.363-22.028,0
				c0-4.363,4.932-7.899,11.012-7.899S316.905,329.728,316.905,334.091z"/>
		</g>
	</g>
	<g>
		<circle style="fill:#3D929A;" cx="92.298" cy="131.186" r="11.723"/>
		<g>
			<path style="opacity:0.2;fill:#67C3C8;enable-background:new    ;" d="M104.021,131.186c0,6.469-5.246,11.723-11.723,11.723
				c-6.477,0-6.473-23.446,0-23.446C98.771,119.463,104.021,124.713,104.021,131.186z"/>
			<path style="opacity:0.2;fill:#67C3C8;enable-background:new    ;" d="M101.716,131.186c0,4.67-3.794,8.464-8.464,8.464
				c-4.685,0-4.685-16.931,0-16.931C97.926,122.719,101.716,126.509,101.716,131.186z"/>
			<path style="opacity:0.2;fill:#67C3C8;enable-background:new    ;" d="M103.056,130.909c0,5.934-21.523,5.934-21.523,0
				c0-5.942,4.816-10.765,10.765-10.765C98.24,120.144,103.056,124.967,103.056,130.909z"/>
			<path style="opacity:0.2;fill:#67C3C8;enable-background:new    ;" d="M100.425,126.745c0,3.229-16.277,3.229-16.277,0
				s3.641-5.841,8.142-5.841S100.425,123.516,100.425,126.745z"/>
		</g>
	</g>
	<g>
		<circle style="fill:#3D929A;" cx="150.007" cy="266.526" r="11.225"/>
		<g>
			<path style="opacity:0.2;fill:#67C3C8;enable-background:new    ;" d="M161.236,266.518c0,6.204-5.036,11.24-11.24,11.24
				c-6.211,0-6.211-22.488,0-22.488C156.2,255.274,161.236,260.307,161.236,266.518z"/>
			<path style="opacity:0.2;fill:#67C3C8;enable-background:new    ;" d="M159.029,266.518c0,4.479-3.633,8.112-8.12,8.112
				c-4.486,0-4.486-16.239,0-16.239C155.395,258.391,159.029,262.032,159.029,266.518z"/>
			<path style="opacity:0.2;fill:#67C3C8;enable-background:new    ;" d="M160.316,266.249c0,5.691-20.647,5.691-20.647,0
				c0-5.699,4.625-10.327,10.327-10.327S160.316,260.55,160.316,266.249z"/>
			<path style="opacity:0.2;fill:#67C3C8;enable-background:new    ;" d="M157.794,262.26c0,3.091-15.618,3.091-15.618,0
				c0-3.098,3.502-5.605,7.813-5.605C154.299,256.655,157.794,259.162,157.794,262.26z"/>
		</g>
	</g>
	<g>
		<circle style="fill:#3D929A;" cx="305.29" cy="270.417" r="9.373"/>
		<g>
			<path style="opacity:0.2;fill:#67C3C8;enable-background:new    ;" d="M314.648,270.436c0,5.175-4.195,9.369-9.369,9.369
				s-5.175-18.746,0-18.746S314.648,265.253,314.648,270.436z"/>
			<path style="opacity:0.2;fill:#67C3C8;enable-background:new    ;" d="M312.811,270.436c0,3.734-3.035,6.769-6.776,6.769
				c-3.734,0-3.734-13.541,0-13.541C309.78,263.663,312.811,266.694,312.811,270.436z"/>
			<path style="opacity:0.2;fill:#67C3C8;enable-background:new    ;" d="M313.881,270.211c0,4.752-17.212,4.752-17.212,0
				s3.858-8.602,8.61-8.602S313.881,265.459,313.881,270.211z"/>
			<path style="opacity:0.2;fill:#67C3C8;enable-background:new    ;" d="M311.782,266.885c0,2.574-13.021,2.574-13.021,0
				c0-2.586,2.915-4.677,6.511-4.677S311.782,264.299,311.782,266.885z"/>
		</g>
	</g>
	<g>
		<circle style="fill:#3D929A;" cx="314.158" cy="98.42" r="9.227"/>
		<g>
			<path style="opacity:0.2;fill:#67C3C8;enable-background:new    ;" d="M323.397,98.42c0,5.093-4.131,9.231-9.231,9.231
				c-5.093,0-5.093-18.454,0-18.454C319.266,89.196,323.397,93.323,323.397,98.42z"/>
			<path style="opacity:0.2;fill:#67C3C8;enable-background:new    ;" d="M321.582,98.42c0,3.674-2.982,6.664-6.657,6.664
				c-3.689,0-3.689-13.332,0-13.332C318.6,91.752,321.582,94.741,321.582,98.42z"/>
			<path style="opacity:0.2;fill:#67C3C8;enable-background:new    ;" d="M322.633,98.199c0,4.67-16.939,4.67-16.939,0
				c0-4.677,3.794-8.471,8.471-8.471C318.843,89.727,322.633,93.522,322.633,98.199z"/>
			<path style="opacity:0.2;fill:#67C3C8;enable-background:new    ;" d="M320.568,94.925c0,2.537-12.812,2.537-12.812,0
				c0-2.544,2.866-4.599,6.402-4.599C317.702,90.326,320.568,92.38,320.568,94.925z"/>
		</g>
	</g>
</g>
</svg>